<svg width="22" height="22" viewBox="0 0 22 22" fill="none" xmlns="http://www.w3.org/2000/svg">
<path d="M18 7C18 5.34315 16.6569 4 15 4H7C5.34315 4 4 5.34315 4 7V15C4 16.6569 5.34315 18 7 18H15C16.6569 18 18 16.6569 18 15V7ZM20 15C20 17.7614 17.7614 20 15 20H7C4.23858 20 2 17.7614 2 15V7C2 4.23858 4.23858 2 7 2H15C17.7614 2 20 4.23858 20 7V15Z" fill="black"/>
<path d="M5.5 7C5.5 6.17157 6.17157 5.5 7 5.5H10.5C11.3284 5.5 12 6.17157 12 7V10.5C12 11.3284 11.3284 12 10.5 12H7C6.17157 12 5.5 11.3284 5.5 10.5V7Z" fill="black"/>
</svg>
